<?xml version="1.0" encoding="UTF-8"?> <!-- Generator: Adobe Illustrator 24.3.0, SVG Export Plug-In . SVG Version: 6.00 Build 0) --> <svg xmlns="http://www.w3.org/2000/svg" xmlns:xlink="http://www.w3.org/1999/xlink" id="Слой_1" x="0px" y="0px" viewBox="0 0 2500 1664" style="enable-background:new 0 0 2500 1664;" xml:space="preserve"> <style type="text/css"> .st0{display:none;fill:#FFFFFF;} .st1{fill:#F0E6FF;} .st2{fill:#FFBFAA;} .st3{fill:#AA5FFF;} .st4{fill:#2A0055;} .st5{fill:#FFFFFF;} .st6{fill:#D3C5ED;} .st7{fill:#FF5C5C;} .st8{enable-background:new ;} .st9{clip-path:url(#SVGID_4_);} .st10{clip-path:url(#SVGID_10_);} .st11{fill:#00C9B9;} .st12{fill:#9960F4;} </style> <rect x="0" y="0" transform="matrix(-1 -4.489576e-11 4.489576e-11 -1 2500 1664)" class="st0" width="2500" height="1664"></rect> <ellipse transform="matrix(0.9846 -0.1748 0.1748 0.9846 -35.1005 195.6048)" class="st1" cx="1092.7" cy="297" rx="96.7" ry="96.7"></ellipse> <path class="st2" d="M1283.3,770.1c0,0-15.8-21.8-15.8-21.9c0-0.7-1.3-2.3-1.6-2.8c-1.5-2.7-3.1-5.4-4.6-8.2 c-3.9-6.8-7.7-13.5-11.7-20.3c-8-13.4-8.4-31-12.4-46c-0.8-3-1.1-10.2-1.3-15.3c-0.1-3.3,1.9-6.3,4.9-7.5l0,0 c4-1.6,8.7,0.3,10.3,4.4l3.7,9.4l6.2-8.7c3.7-5.1,11.2-5.2,15-0.2l0,0c2.2,3,2.5,7,0.7,10.2l-8.2,14.5l0.8,1.1l7.6-7.5 c2.7-2.7,7.2-2.4,9.6,0.7l0,0c1.1,1.5,1.5,3.4,1.1,5.2l-2.8,12.6c-1.2,5.5-1.4,11.2-0.4,16.8l0,0c0.9,5.2-1.8-9.6,0.9-5.1l5.8,9.8 l3.3-8.9c1.6-4.3,6-7,10.4-6.1c4.1,0.9,6.9,4.4,7.1,8.4l22.3,55.5c0.7,14.9-20,10.2-27.8,23l7,19.8L1283.3,770.1z"></path> <g> <path class="st3" d="M1408.1,1495.6c0.3,0,0.6-0.1,1-0.2c1.3-0.5,1.9-2,1.3-3.3l-160.7-385.7c-0.5-1.3-2-1.9-3.3-1.3 c-1.3,0.5-1.9,2-1.3,3.3l160.7,385.7C1406.2,1495,1407.1,1495.6,1408.1,1495.6z"></path> </g> <g> <path class="st3" d="M1178.9,1495.6c1,0,1.9-0.6,2.3-1.5l173.1-412.6c0.5-1.3-0.1-2.7-1.3-3.3c-1.3-0.5-2.7,0.1-3.3,1.3 l-173.1,412.6c-0.5,1.3,0.1,2.7,1.3,3.3C1178.2,1495.6,1178.6,1495.6,1178.9,1495.6z"></path> </g> <g> <path class="st4" d="M1528,1495.9c1.1,0,2-0.7,2.4-1.7l63.4-193.2c0.4-1.3-0.3-2.7-1.6-3.2c-1.3-0.4-2.7,0.3-3.2,1.6l-63.4,193.2 c-0.4,1.3,0.3,2.7,1.6,3.2C1527.4,1495.9,1527.7,1495.9,1528,1495.9z"></path> </g> <g> <path class="st3" d="M1798.4,1496.1h309.1v-149.5c0-1.4-1.1-2.6-2.6-2.6s-2.6,1.1-2.6,2.6v144.4h-298.9v-444.9h298.9v128 c0,1.4,1.1,2.6,2.6,2.6s2.6-1.1,2.6-2.6v-133.1h-309.1V1496.1z"></path> </g> <g> <rect x="1703" y="1259.5" transform="matrix(-1 -4.489798e-11 4.489798e-11 -1 3696 2608.9995)" class="st5" width="290" height="90"></rect> <path class="st3" d="M1700.4,1256.9h295.1v95.1h-295.1V1256.9z M1990.4,1262.1h-284.9v84.9h284.9V1262.1z"></path> </g> <g> <path class="st3" d="M1801.5,1460.6h223.1V1378c0-1.4-1.1-2.6-2.6-2.6s-2.6,1.1-2.6,2.6v77.4h-217.9c-1.4,0-2.6,1.1-2.6,2.6 S1800.1,1460.6,1801.5,1460.6z"></path> </g> <rect x="1709" y="1190.2" transform="matrix(-1 -4.489310e-11 4.489310e-11 -1 3629.1008 2447.146)" class="st6" width="211.1" height="66.8"></rect> <rect x="1768.5" y="1190.2" transform="matrix(-1 -4.491042e-11 4.491042e-11 -1 3748.1836 2447.146)" class="st1" width="211.1" height="66.8"></rect> <rect x="1709" y="1055.8" transform="matrix(-1 -4.489310e-11 4.489310e-11 -1 3629.1008 2178.3081)" class="st6" width="211.1" height="66.8"></rect> <rect x="1768.5" y="1055.8" transform="matrix(-1 -4.489310e-11 4.489310e-11 -1 3748.1836 2178.3081)" class="st1" width="211.1" height="66.8"></rect> <rect x="1709" y="921.4" transform="matrix(-1 -4.489310e-11 4.489310e-11 -1 3629.1008 1909.4702)" class="st6" width="211.1" height="66.8"></rect> <rect x="1768.5" y="921.4" transform="matrix(-1 -4.489310e-11 4.489310e-11 -1 3748.1836 1909.4702)" class="st1" width="211.1" height="66.8"></rect> <rect x="1733" y="786.9" transform="matrix(-1 -4.489310e-11 4.489310e-11 -1 3677.1008 1640.6322)" class="st6" width="211.1" height="66.8"></rect> <rect x="1792.5" y="786.9" transform="matrix(-1 -4.491042e-11 4.491042e-11 -1 3796.1836 1640.6322)" class="st1" width="211.1" height="66.8"></rect> <rect x="1709" y="652.5" transform="matrix(-1 -4.489754e-11 4.489754e-11 -1 3629.1008 1371.7943)" class="st6" width="211.1" height="66.8"></rect> <rect x="1768.5" y="652.5" transform="matrix(-1 -4.489754e-11 4.489754e-11 -1 3748.1836 1371.7943)" class="st1" width="211.1" height="66.8"></rect> <rect x="1733.4" y="1123.4" transform="matrix(-1 -4.489310e-11 4.489310e-11 -1 3677.8167 2313.6292)" class="st6" width="211.1" height="66.8"></rect> <rect x="1792.9" y="1123.4" transform="matrix(-1 -4.489310e-11 4.489310e-11 -1 3796.8992 2313.6292)" class="st1" width="211.1" height="66.8"></rect> <rect x="1733.4" y="989" transform="matrix(-1 -4.489310e-11 4.489310e-11 -1 3677.8167 2044.7913)" class="st6" width="211.1" height="66.8"></rect> <rect x="1792.9" y="989" transform="matrix(-1 -4.489310e-11 4.489310e-11 -1 3796.8992 2044.7913)" class="st1" width="211.1" height="66.8"></rect> <rect x="1733.4" y="854.6" transform="matrix(-1 -4.489310e-11 4.489310e-11 -1 3677.8167 1775.9534)" class="st6" width="211.1" height="66.8"></rect> <rect x="1792.9" y="854.6" transform="matrix(-1 -4.491042e-11 4.491042e-11 -1 3796.8992 1775.9534)" class="st1" width="211.1" height="66.8"></rect> <rect x="1733.4" y="720.2" transform="matrix(-1 -4.489754e-11 4.489754e-11 -1 3677.8167 1507.1154)" class="st6" width="211.1" height="66.8"></rect> <rect x="1792.9" y="720.2" transform="matrix(-1 -4.489754e-11 4.489754e-11 -1 3796.8992 1507.1154)" class="st1" width="211.1" height="66.8"></rect> <g> <path class="st6" d="M1733,722.2h248c1.4,0,2.5-1.1,2.5-2.5c0-1.4-1.1-2.5-2.5-2.5h-248c-1.4,0-2.5,1.1-2.5,2.5 C1730.5,721.1,1731.6,722.2,1733,722.2z"></path> </g> <g> <path class="st6" d="M1732.5,789.7h248c1.4,0,2.5-1.1,2.5-2.5c0-1.4-1.1-2.5-2.5-2.5h-248c-1.4,0-2.5,1.1-2.5,2.5 C1730,788.6,1731.1,789.7,1732.5,789.7z"></path> </g> <g> <path class="st6" d="M1732,857.2h248c1.4,0,2.5-1.1,2.5-2.5c0-1.4-1.1-2.5-2.5-2.5h-248c-1.4,0-2.5,1.1-2.5,2.5 C1729.5,856.1,1730.6,857.2,1732,857.2z"></path> </g> <g> <path class="st6" d="M1911,924.7h68.5c1.4,0,2.5-1.1,2.5-2.5c0-1.4-1.1-2.5-2.5-2.5H1911c-1.4,0-2.5,1.1-2.5,2.5 C1908.5,923.6,1909.6,924.7,1911,924.7z"></path> </g> <g> <path class="st6" d="M1731.5,924.7H1879c1.4,0,2.5-1.1,2.5-2.5c0-1.4-1.1-2.5-2.5-2.5h-147.5c-1.4,0-2.5,1.1-2.5,2.5 C1729,923.6,1730.1,924.7,1731.5,924.7z"></path> </g> <g> <path class="st6" d="M1734.5,992.2H1979c1.4,0,2.5-1.1,2.5-2.5c0-1.4-1.1-2.5-2.5-2.5h-244.5c-1.4,0-2.5,1.1-2.5,2.5 C1732,991.1,1733.1,992.2,1734.5,992.2z"></path> </g> <g> <path class="st6" d="M1850,1059.7h128.5c1.4,0,2.5-1.1,2.5-2.5s-1.1-2.5-2.5-2.5H1850c-1.4,0-2.5,1.1-2.5,2.5 S1848.6,1059.7,1850,1059.7z"></path> </g> <g> <path class="st6" d="M1730.5,1059.7h86.5c1.4,0,2.5-1.1,2.5-2.5s-1.1-2.5-2.5-2.5h-86.5c-1.4,0-2.5,1.1-2.5,2.5 S1729.1,1059.7,1730.5,1059.7z"></path> </g> <g> <path class="st6" d="M1730,1127.2h248c1.4,0,2.5-1.1,2.5-2.5s-1.1-2.5-2.5-2.5h-248c-1.4,0-2.5,1.1-2.5,2.5 S1728.6,1127.2,1730,1127.2z"></path> </g> <g> <path class="st6" d="M1922,1194.7h55.5c1.4,0,2.5-1.1,2.5-2.5s-1.1-2.5-2.5-2.5H1922c-1.4,0-2.5,1.1-2.5,2.5 S1920.6,1194.7,1922,1194.7z"></path> </g> <g> <path class="st6" d="M1729.5,1194.7H1883c1.4,0,2.5-1.1,2.5-2.5s-1.1-2.5-2.5-2.5h-153.5c-1.4,0-2.5,1.1-2.5,2.5 S1728.1,1194.7,1729.5,1194.7z"></path> </g> <g> <path class="st3" d="M1891.5,1413.6h29c1.4,0,2.6-1.1,2.6-2.6s-1.1-2.6-2.6-2.6h-29c-1.4,0-2.6,1.1-2.6,2.6 S1890.1,1413.6,1891.5,1413.6z"></path> </g> <g> <path class="st3" d="M1836.5,1308.6h29c1.4,0,2.6-1.1,2.6-2.6s-1.1-2.6-2.6-2.6h-29c-1.4,0-2.6,1.1-2.6,2.6 S1835.1,1308.6,1836.5,1308.6z"></path> </g> <rect x="425" y="1426" transform="matrix(-1 -4.489310e-11 4.489310e-11 -1 1061.101 2918.6753)" class="st6" width="211.1" height="66.8"></rect> <rect x="484.5" y="1426" transform="matrix(-1 -4.491042e-11 4.491042e-11 -1 1180.1836 2918.6753)" class="st1" width="211.1" height="66.8"></rect> <rect x="425" y="1291.5" transform="matrix(-1 -4.489310e-11 4.489310e-11 -1 1061.101 2649.8374)" class="st6" width="211.1" height="66.8"></rect> <rect x="484.5" y="1291.5" transform="matrix(-1 -4.489310e-11 4.489310e-11 -1 1180.1836 2649.8374)" class="st1" width="211.1" height="66.8"></rect> <rect x="425" y="1157.1" transform="matrix(-1 -4.489310e-11 4.489310e-11 -1 1061.101 2380.9995)" class="st6" width="211.1" height="66.8"></rect> <rect x="484.5" y="1157.1" transform="matrix(-1 -4.491042e-11 4.491042e-11 -1 1180.1836 2380.9995)" class="st1" width="211.1" height="66.8"></rect> <rect x="425" y="1022.7" transform="matrix(-1 -4.489310e-11 4.489310e-11 -1 1061.101 2112.1616)" class="st6" width="211.1" height="66.8"></rect> <rect x="484.5" y="1022.7" transform="matrix(-1 -4.491042e-11 4.491042e-11 -1 1180.1836 2112.1616)" class="st1" width="211.1" height="66.8"></rect> <rect x="449" y="888.3" transform="matrix(-1 -4.489310e-11 4.489310e-11 -1 1109.101 1843.3237)" class="st6" width="211.1" height="66.8"></rect> <rect x="508.5" y="888.3" transform="matrix(-1 -4.489310e-11 4.489310e-11 -1 1228.1836 1843.3237)" class="st1" width="211.1" height="66.8"></rect> <rect x="449.4" y="1359.2" transform="matrix(-1 -4.489310e-11 4.489310e-11 -1 1109.8165 2785.1587)" class="st6" width="211.1" height="66.8"></rect> <rect x="508.9" y="1359.2" transform="matrix(-1 -4.489310e-11 4.489310e-11 -1 1228.8992 2785.1587)" class="st1" width="211.1" height="66.8"></rect> <rect x="449.4" y="1224.8" transform="matrix(-1 -4.489310e-11 4.489310e-11 -1 1109.8165 2516.3206)" class="st6" width="211.1" height="66.8"></rect> <rect x="508.9" y="1224.8" transform="matrix(-1 -4.491042e-11 4.491042e-11 -1 1228.8992 2516.3206)" class="st1" width="211.1" height="66.8"></rect> <rect x="449.4" y="1090.4" transform="matrix(-1 -4.489310e-11 4.489310e-11 -1 1109.8165 2247.4829)" class="st6" width="211.1" height="66.8"></rect> <rect x="508.9" y="1090.4" transform="matrix(-1 -4.491042e-11 4.491042e-11 -1 1228.8992 2247.4829)" class="st1" width="211.1" height="66.8"></rect> <rect x="449.4" y="955.9" transform="matrix(-1 -4.489310e-11 4.489310e-11 -1 1109.8165 1978.6448)" class="st6" width="211.1" height="66.8"></rect> <rect x="508.9" y="955.9" transform="matrix(-1 -4.489310e-11 4.489310e-11 -1 1228.8992 1978.6448)" class="st1" width="211.1" height="66.8"></rect> <g> <path class="st6" d="M449,958h248c1.4,0,2.5-1.1,2.5-2.5s-1.1-2.5-2.5-2.5H449c-1.4,0-2.5,1.1-2.5,2.5S447.6,958,449,958z"></path> </g> <g> <path class="st6" d="M448.5,1025.5h248c1.4,0,2.5-1.1,2.5-2.5c0-1.4-1.1-2.5-2.5-2.5h-248c-1.4,0-2.5,1.1-2.5,2.5 C446,1024.4,447.1,1025.5,448.5,1025.5z"></path> </g> <g> <path class="st6" d="M448,1093h248c1.4,0,2.5-1.1,2.5-2.5s-1.1-2.5-2.5-2.5H448c-1.4,0-2.5,1.1-2.5,2.5S446.6,1093,448,1093z"></path> </g> <g> <path class="st6" d="M447.5,1160.5H595c1.4,0,2.5-1.1,2.5-2.5s-1.1-2.5-2.5-2.5H447.5c-1.4,0-2.5,1.1-2.5,2.5 S446.1,1160.5,447.5,1160.5z"></path> </g> <g> <path class="st6" d="M450.5,1228H695c1.4,0,2.5-1.1,2.5-2.5s-1.1-2.5-2.5-2.5H450.5c-1.4,0-2.5,1.1-2.5,2.5S449.1,1228,450.5,1228z "></path> </g> <g> <path class="st6" d="M566,1295.5h128.5c1.4,0,2.5-1.1,2.5-2.5s-1.1-2.5-2.5-2.5H566c-1.4,0-2.5,1.1-2.5,2.5 S564.6,1295.5,566,1295.5z"></path> </g> <g> <path class="st6" d="M446.5,1295.5H533c1.4,0,2.5-1.1,2.5-2.5s-1.1-2.5-2.5-2.5h-86.5c-1.4,0-2.5,1.1-2.5,2.5 S445.1,1295.5,446.5,1295.5z"></path> </g> <g> <path class="st6" d="M446,1363h248c1.4,0,2.5-1.1,2.5-2.5s-1.1-2.5-2.5-2.5H446c-1.4,0-2.5,1.1-2.5,2.5S444.6,1363,446,1363z"></path> </g> <g> <path class="st6" d="M638,1430.5h55.5c1.4,0,2.5-1.1,2.5-2.5s-1.1-2.5-2.5-2.5H638c-1.4,0-2.5,1.1-2.5,2.5S636.6,1430.5,638,1430.5 z"></path> </g> <g> <path class="st6" d="M445.5,1430.5H599c1.4,0,2.5-1.1,2.5-2.5s-1.1-2.5-2.5-2.5H445.5c-1.4,0-2.5,1.1-2.5,2.5 S444.1,1430.5,445.5,1430.5z"></path> </g> <rect x="798" y="1178.7" transform="matrix(-1 -4.489310e-11 4.489310e-11 -1 1807.101 2424.1616)" class="st6" width="211.1" height="66.8"></rect> <rect x="857.5" y="1178.7" transform="matrix(-1 -4.489310e-11 4.489310e-11 -1 1926.1836 2424.1616)" class="st1" width="211.1" height="66.8"></rect> <rect x="768" y="1044.3" transform="matrix(-1 -4.489310e-11 4.489310e-11 -1 1747.1039 2155.3237)" class="st6" width="211.1" height="66.8"></rect> <rect x="827.5" y="1044.3" transform="matrix(-1 -4.489310e-11 4.489310e-11 -1 1866.1865 2155.3237)" class="st1" width="211.1" height="66.8"></rect> <rect x="822.4" y="1246.4" transform="matrix(-1 -4.489310e-11 4.489310e-11 -1 1855.8165 2559.4829)" class="st6" width="211.1" height="66.8"></rect> <rect x="881.9" y="1246.4" transform="matrix(-1 -4.489310e-11 4.489310e-11 -1 1974.8992 2559.4829)" class="st1" width="211.1" height="66.8"></rect> <rect x="822.4" y="1111.9" transform="matrix(-1 -4.491042e-11 4.491042e-11 -1 1855.8165 2290.6448)" class="st6" width="211.1" height="66.8"></rect> <rect x="881.9" y="1111.9" transform="matrix(-1 -4.489310e-11 4.489310e-11 -1 1974.8992 2290.6448)" class="st1" width="211.1" height="66.8"></rect> <g> <path class="st6" d="M822,1114h248c1.4,0,2.5-1.1,2.5-2.5s-1.1-2.5-2.5-2.5H822c-1.4,0-2.5,1.1-2.5,2.5S820.6,1114,822,1114z"></path> </g> <g> <path class="st6" d="M821.5,1181.5h248c1.4,0,2.5-1.1,2.5-2.5s-1.1-2.5-2.5-2.5h-248c-1.4,0-2.5,1.1-2.5,2.5 S820.1,1181.5,821.5,1181.5z"></path> </g> <g> <path class="st6" d="M821,1249h248c1.4,0,2.5-1.1,2.5-2.5s-1.1-2.5-2.5-2.5H821c-1.4,0-2.5,1.1-2.5,2.5S819.6,1249,821,1249z"></path> </g> <g> <polygon class="st5" points="1546.4,819.4 1511.8,819.4 1401,1225 1689.3,1225 "></polygon> <path class="st4" d="M1401,1228.1h288.3c1.7,0,3-1.4,3-3s-1.4-3-3-3H1405l109.2-399.6h32.2c1.7,0,3-1.4,3-3c0-1.7-1.4-3-3-3h-34.5 c-1.4,0-2.6,0.9-2.9,2.2l-110.8,405.7c-0.2,0.9-0.1,1.9,0.5,2.7C1399.1,1227.6,1400,1228.1,1401,1228.1z"></path> </g> <g> <polygon class="st5" points="1689.3,1224 1800.1,818.4 1578.1,818.4 "></polygon> <path class="st4" d="M1689.3,1226.5c1.1,0,2.1-0.7,2.4-1.8L1802.5,819c0.2-0.8,0-1.6-0.4-2.2c-0.5-0.6-1.2-1-2-1h-222 c-1.4,0-2.5,1.1-2.5,2.5c0,1.4,1.1,2.5,2.5,2.5h218.7l-110,402.5c-0.4,1.3,0.4,2.7,1.8,3.1 C1688.8,1226.5,1689,1226.5,1689.3,1226.5z"></path> </g> <g> <path class="st4" d="M1638.4,1227.5c1.1,0,2.1-0.7,2.4-1.8L1751.6,820c0.4-1.3-0.4-2.7-1.8-3.1c-1.3-0.4-2.7,0.4-3.1,1.8 l-110.8,405.7c-0.4,1.3,0.4,2.7,1.8,3.1C1637.9,1227.5,1638.1,1227.5,1638.4,1227.5z"></path> </g> <g> <rect x="860.4" y="1315.1" transform="matrix(-1 -4.489976e-11 4.489976e-11 -1 1973.5001 2808.6306)" class="st5" width="252.7" height="178.4"></rect> <path class="st3" d="M857.8,1312.5h257.8v183.6H857.8V1312.5z M1110.5,1317.7H863V1491h247.6V1317.7z"></path> </g> <g> <rect x="759.2" y="1315.1" transform="matrix(-1 -4.490109e-11 4.490109e-11 -1 1692.5038 2808.6306)" class="st5" width="174.2" height="178.4"></rect> <path class="st3" d="M756.6,1312.5h179.3v183.6H756.6V1312.5z M930.8,1317.7H761.7V1491h169.1V1317.7z"></path> </g> <g> <path class="st5" d="M933.6,1315.1v178.4V1315.1z"></path> <path class="st3" d="M933.6,1496.1c1.4,0,2.6-1.1,2.6-2.6v-178.4c0-1.4-1.1-2.6-2.6-2.6c-1.4,0-2.6,1.1-2.6,2.6v178.4 C931,1495,932.2,1496.1,933.6,1496.1z"></path> </g> <g> <path class="st4" d="M1776.7,1495.6c0.3,0,0.5,0,0.8-0.1c1.3-0.4,2-1.8,1.6-3.2l-88-268.1c-0.4-1.3-1.8-2-3.2-1.6 c-1.3,0.4-2,1.8-1.6,3.2l88,268.1C1774.7,1495,1775.7,1495.6,1776.7,1495.6z"></path> </g> <g> <path class="st4" d="M1587,1495.9c0.3,0,0.5,0,0.8-0.1c1.3-0.4,2-1.8,1.6-3.2l-87-264.8c-0.4-1.3-1.8-2-3.2-1.6 c-1.3,0.4-2,1.8-1.6,3.2l87,264.8C1585,1495.2,1586,1495.9,1587,1495.9z"></path> </g> <g> <path class="st4" d="M1599.8,1277c1.1,0,2-0.7,2.4-1.7l15.6-47.5h68.1c1.4,0,2.5-1.1,2.5-2.5s-1.1-2.5-2.5-2.5h-71.7l-16.7,51 c-0.4,1.3,0.3,2.7,1.6,3.2C1599.2,1277,1599.5,1277,1599.8,1277z"></path> </g> <g> <path class="st4" d="M1033.2,1495.6c0.3,0,0.6-0.1,0.9-0.2c1.3-0.5,1.9-2,1.4-3.3l-47.4-117c-0.5-1.3-2-1.9-3.3-1.4 c-1.3,0.5-1.9,2-1.4,3.3l47.4,117C1031.3,1495,1032.2,1495.6,1033.2,1495.6z"></path> </g> <g> <path class="st4" d="M961.9,1324.2c0.3,0,0.6-0.1,1-0.2c1.3-0.5,1.9-2,1.3-3.3l-100.9-242.2c-0.5-1.3-2-1.9-3.3-1.3 c-1.3,0.5-1.9,2-1.3,3.3l100.9,242.2C960,1323.6,960.9,1324.2,961.9,1324.2z"></path> </g> <g> <path class="st4" d="M804.3,1495.6c1,0,1.9-0.6,2.3-1.5l60.3-145c0.5-1.3-0.1-2.7-1.3-3.3c-1.3-0.5-2.7,0.1-3.3,1.3l-60.3,145 c-0.5,1.3,0.1,2.7,1.3,3.3C803.6,1495.6,803.9,1495.6,804.3,1495.6z"></path> </g> <g> <path class="st4" d="M886.5,1297.8c1,0,1.9-0.6,2.3-1.5l99.5-239.4c0.5-1.3-0.1-2.7-1.3-3.3c-1.3-0.5-2.7,0.1-3.3,1.3l-99.5,239.4 c-0.5,1.3,0.1,2.7,1.3,3.3C885.8,1297.8,886.2,1297.8,886.5,1297.8z"></path> </g> <g> <g> <polygon class="st1" points="1053.1,978.1 1121.1,978.1 1112.6,1075.1 1061.6,1075.1 1060.4,1061.7 "></polygon> <path class="st1" d="M1059.3,1075.3l-8.5-97c-0.1-0.6,0.2-1.3,0.6-1.8c0.4-0.5,1.1-0.7,1.7-0.7h68c0.6,0,1.3,0.3,1.7,0.7 c0.4,0.5,0.7,1.1,0.6,1.8l-8.5,97c-0.1,1.2-1.1,2.1-2.3,2.1h-51.1C1060.4,1077.4,1059.4,1076.5,1059.3,1075.3z M1118.6,980.4h-63 l8,92.4h46.9L1118.6,980.4z"></path> </g> <g> <path class="st6" d="M1083.2,961.9c1,0,2-0.6,2.4-1.7c0.1-0.2,7.9-23.1-16.1-34.1c-17.5-8-16.5-21.9-15.9-31.1 c0.1-1.5,0.2-2.9,0.2-4c0-1.4-1.2-2.5-2.5-2.5c-1.4,0-2.5,1.1-2.5,2.5c0,1-0.1,2.2-0.2,3.6c-0.6,9.3-1.8,26.6,18.8,36 c19.9,9.1,13.7,27.1,13.5,27.9c-0.5,1.3,0.2,2.7,1.5,3.2C1082.6,961.9,1082.9,961.9,1083.2,961.9z"></path> </g> <g> <path class="st6" d="M1091,964.1c1,0,1.9-0.6,2.3-1.6c2-4.9,6.3-7.9,10.9-11l1.3-0.9c8-5.6,11-12.5,9.2-21.1 c-0.3-1.4-1.6-2.2-2.9-1.9c-1.4,0.3-2.2,1.6-1.9,2.9c1.4,6.6-0.9,11.6-7.2,16.1l-1.3,0.9c-4.9,3.4-10.1,7-12.6,13.3 c-0.5,1.3,0.1,2.7,1.4,3.3C1090.4,964,1090.7,964.1,1091,964.1z"></path> </g> <g> <path class="st6" d="M1064,1044c1.4,0,2.5-1.1,2.5-2.5c0-1.4-1.1-2.5-2.5-2.5c-12.2,0-22.5-9-24.4-21.5l-1.6-10 c-0.4-2.4,0.3-4.8,1.9-6.7c1.5-1.8,3.6-2.7,5.8-2.7h25.2c1.4,0,2.5-1.1,2.5-2.5c0-1.4-1.1-2.5-2.5-2.5h-25.2 c-3.7,0-7.2,1.6-9.6,4.5c-2.5,2.9-3.6,6.8-3,10.7l1.6,10C1036.9,1033.2,1049.2,1044,1064,1044z"></path> </g> </g> <g> <path class="st4" d="M255,1497.9h223.2c1.4,0,2.5-1.1,2.5-2.5s-1.1-2.5-2.5-2.5H255c-1.4,0-2.5,1.1-2.5,2.5 S253.6,1497.9,255,1497.9z"></path> </g> <g> <path class="st4" d="M545.1,1497.9h1355.9c1.4,0,2.5-1.1,2.5-2.5s-1.1-2.5-2.5-2.5H545.1c-1.4,0-2.5,1.1-2.5,2.5 S543.7,1497.9,545.1,1497.9z"></path> </g> <g> <path class="st4" d="M1880.9,1497.9H2285c1.4,0,2.5-1.1,2.5-2.5s-1.1-2.5-2.5-2.5h-404.1c-1.4,0-2.5,1.1-2.5,2.5 S1879.5,1497.9,1880.9,1497.9z"></path> </g> <g> <circle class="st1" cx="2047.7" cy="543.3" r="29"></circle> <polygon class="st1" points="2048.5,426.9 2135.8,547.4 1919,548.2 2047.5,427 "></polygon> <g> <path class="st5" d="M2049.1,280.1l0-49.5L2049.1,280.1z"></path> <path class="st1" d="M2049.1,283.2C2049.1,283.2,2049.1,283.2,2049.1,283.2c1.7,0,3.1-1.4,3.1-3.1l0-49.5c0-1.7-1.4-3.1-3.1-3.1 c0,0,0,0,0,0c-1.7,0-3.1,1.4-3.1,3.1l0,49.5C2046,281.8,2047.3,283.2,2049.1,283.2z"></path> </g> <g> <path class="st5" d="M2049.2,426.5l-0.1-102.9L2049.2,426.5z"></path> <path class="st1" d="M2049.2,429.6C2049.2,429.6,2049.3,429.6,2049.2,429.6c1.7,0,3.1-1.4,3.1-3.1l-0.1-102.9 c0-1.7-1.4-3.1-3.1-3.1c0,0,0,0,0,0c-1.7,0-3.1,1.4-3.1,3.1l0.1,102.9C2046.1,428.2,2047.5,429.6,2049.2,429.6z"></path> </g> <g> <polygon class="st5" points="2049.4,426.9 2162.6,543.9 1971.7,544.7 2049.4,426.9 "></polygon> <path class="st1" d="M1968.9,546.2c-0.5-1-0.5-2.2,0.1-3.2l77.7-117.8c0.5-0.8,1.4-1.3,2.3-1.4c0.9-0.1,1.9,0.3,2.5,0.9l113.2,117 c0.9,0.9,1.1,2.2,0.6,3.4c-0.5,1.1-1.6,1.9-2.9,1.9l-190.9,0.8c0,0,0,0,0,0C1970.5,547.8,1969.5,547.2,1968.9,546.2z M2049.8,431.9l-72.4,109.7l177.8-0.8L2049.8,431.9z"></path> </g> <g> <path class="st5" d="M2032.3,519.8l19.3-54.1L2032.3,519.8z"></path> <path class="st1" d="M2032.3,522.9c1.3,0,2.5-0.8,2.9-2.1l19.3-54.1c0.6-1.6-0.3-3.4-1.9-4c-1.6-0.6-3.4,0.3-4,1.9l-19.3,54.1 c-0.6,1.6,0.3,3.4,1.9,4C2031.6,522.9,2032,522.9,2032.3,522.9z"></path> </g> <g> <path class="st5" d="M2050,596.7l0.1,24.2L2050,596.7z"></path> <path class="st1" d="M2050.1,624C2050.1,624,2050.1,624,2050.1,624c1.7,0,3.1-1.4,3.1-3.1l-0.1-24.2c0-1.7-1.4-3.1-3.1-3.1 c0,0,0,0,0,0c-1.7,0-3.1,1.4-3.1,3.1l0.1,24.2C2047,622.6,2048.4,624,2050.1,624z"></path> </g> <g> <path class="st5" d="M2087.8,578.2l18.6,15.5L2087.8,578.2z"></path> <path class="st1" d="M2106.4,596.8c0.9,0,1.8-0.4,2.4-1.1c1.1-1.3,0.9-3.3-0.4-4.4l-18.6-15.5c-1.3-1.1-3.3-0.9-4.4,0.4 c-1.1,1.3-0.9,3.3,0.4,4.4l18.6,15.5C2105,596.6,2105.7,596.8,2106.4,596.8z"></path> </g> <g> <path class="st5" d="M2012.1,578.5l-18.5,15.6L2012.1,578.5z"></path> <path class="st1" d="M1993.5,597.2c0.7,0,1.4-0.2,2-0.7l18.5-15.6c1.3-1.1,1.5-3.1,0.4-4.4c-1.1-1.3-3.1-1.5-4.4-0.4l-18.5,15.6 c-1.3,1.1-1.5,3.1-0.4,4.4C1991.8,596.8,1992.7,597.2,1993.5,597.2z"></path> </g> </g> <g> <path class="st1" d="M753.7,413l0.7,0.3l1.3,0.6c0,0,3.6,1.6,3.6,1.6L879.7,471l32.9-41.9l-22.9-2.4L757.6,413 c-0.1,0-3.1-0.3-3.1-0.3L753.7,413z"></path> <g> <g> <polygon class="st1" points="752.8,413.6 752.9,413.7 889.6,427.2 887.3,401.5 "></polygon> <g> <polygon class="st5" points="755.7,414 752.9,413.7 753,413.9 759.4,415.6 894,452.7 930.7,462.8 912.6,429.1 889.7,426.9 755.8,414 "></polygon> <path class="st1" d="M930,465.2l-36.7-10.1L758.7,418l-6.4-1.8c-0.7-0.2-1.3-0.7-1.6-1.3l-0.1-0.2c-0.4-0.8-0.3-1.8,0.2-2.5 c0.5-0.7,1.4-1.1,2.3-1l2.7,0.3c0.1,0,0.1,0,0.2,0l133.9,12.9l22.9,2.2c0.8,0.1,1.6,0.6,2,1.3l18.1,33.7c0.5,0.9,0.4,2-0.2,2.7 c-0.4,0.5-1,0.9-1.7,0.9C930.6,465.3,930.3,465.3,930,465.2z M889.4,429.4l-108.9-10.5l145.2,40L911,431.4L889.4,429.4z"></path> </g> <g> <path class="st5" d="M752.7,413.4l0.1,0.1l1.6-0.2l3.1-0.4c0.1,0,129-11,129-11l-0.2-0.5l-22.2-22.8l-109.6,33.9l-0.8,0.3 L752.7,413.4z"></path> <path class="st1" d="M886.8,404.6c-107.8,9.2-125.7,10.7-128.9,10.9l-4.8,0.6c0,0,0,0,0,0c-1,0.1-1.9-0.4-2.4-1.2l-0.1-0.1 c-0.4-0.6-0.4-1.4-0.2-2.1c0.2-0.7,0.8-1.2,1.5-1.5l1.8-0.7c0.1,0,0.1,0,0.2-0.1l109.6-33.9c0.9-0.3,1.9,0,2.5,0.6l22.2,22.8 c0.2,0.2,0.3,0.4,0.4,0.6l0.2,0.5c0.4,0.7,0.4,1.6,0,2.4C888.4,404,887.6,404.5,886.8,404.6 C886.8,404.6,886.8,404.6,886.8,404.6z M774.8,409.1c29.7-2.5,88.8-7.5,106.5-9l-17.9-18.4L774.8,409.1z"></path> </g> </g> </g> </g> <g> <g> <path class="st5" d="M632.1,551.1V432.1V551.1z"></path> <path class="st1" d="M632.1,554.3c1.7,0,3.1-1.4,3.1-3.1V432.1c0-1.7-1.4-3.1-3.1-3.1s-3.1,1.4-3.1,3.1v119.1 C629,552.9,630.4,554.3,632.1,554.3z"></path> </g> <g> <polygon class="st5" points="567.3,278.3 370,278.3 370,575.7 573.9,575.7 "></polygon> <path class="st1" d="M370,578.8h203.9c1.7,0,3.1-1.4,3.1-3.1c0-1.7-1.4-3.1-3.1-3.1H373.1V281.4h194.1c1.7,0,3.1-1.4,3.1-3.1 c0-1.7-1.4-3.1-3.1-3.1H370c-1.7,0-3.1,1.4-3.1,3.1v297.4C366.9,577.4,368.3,578.8,370,578.8z"></path> </g> <g> <polygon class="st5" points="525.2,318.6 415.2,318.6 415.2,535.4 586.9,535.4 586.9,400.9 "></polygon> <path class="st1" d="M415.2,538.5h171.7c1.7,0,3.1-1.4,3.1-3.1V400.9c0-1.7-1.4-3.1-3.1-3.1c-1.7,0-3.1,1.4-3.1,3.1v131.4H418.3 V321.7h106.9c1.7,0,3.1-1.4,3.1-3.1c0-1.7-1.4-3.1-3.1-3.1h-110c-1.7,0-3.1,1.4-3.1,3.1v216.8 C412.1,537.1,413.5,538.5,415.2,538.5z"></path> </g> </g> <g> <ellipse transform="matrix(0.7071 -0.7071 0.7071 0.7071 -192.724 914.8347)" class="st7" cx="1007.9" cy="690.1" rx="82.6" ry="82.6"></ellipse> <g> <path class="st4" d="M1044.2,770.7c46.4-6.9,78.5-50.3,71.6-96.7c-2.8-18.8-11.5-35.7-25.2-48.8c-1-1-2.6-0.9-3.5,0.1 c-1,1-0.9,2.6,0.1,3.5c12.9,12.4,21.1,28.2,23.7,45.9c6.5,43.7-23.7,84.5-67.4,91c-43.7,6.5-84.5-23.7-91-67.4 c-6.5-43.7,23.7-84.5,67.4-91c15.9-2.4,31.9,0,46.3,6.9c1.2,0.6,2.7,0.1,3.3-1.2c0.6-1.2,0.1-2.7-1.2-3.3 c-15.3-7.3-32.3-9.9-49.2-7.3c-46.4,6.9-78.5,50.3-71.6,96.7C954.5,745.5,997.8,777.6,1044.2,770.7z"></path> </g> <g> <path class="st4" d="M1068.6,714.4c0.7-0.1,1.3-0.5,1.8-1.1c0.7-1.2,0.4-2.7-0.8-3.4l-79.9-50.1c-1.2-0.7-2.7-0.4-3.4,0.8 c-0.7,1.2-0.4,2.7,0.8,3.4l79.9,50.1C1067.5,714.4,1068.1,714.5,1068.6,714.4z"></path> </g> <g> <path class="st4" d="M997.7,725c0.6-0.1,1.1-0.4,1.5-0.8l61.8-71.2c0.9-1,0.8-2.6-0.3-3.5c-1-0.9-2.6-0.8-3.5,0.2l-61.8,71.2 c-0.9,1-0.8,2.6,0.3,3.5C996.3,724.9,997,725.1,997.7,725z"></path> </g> </g> <g> <g> <ellipse transform="matrix(0.7071 -0.7071 0.7071 0.7071 202.635 1338.6488)" class="st7" cx="1717.2" cy="424.7" rx="100.1" ry="100.1"></ellipse> </g> </g> <g> <g> <g> <path class="st4" d="M1711.9,531.2c53.6,18.1,111.9-10.8,130-64.4c18.1-53.6-10.8-111.9-64.4-130c-8.8-3-17.9-4.7-27-5.3 c-1.4-0.1-2.6,1-2.6,2.4c-0.1,1.4,1,2.6,2.4,2.6c8.7,0.5,17.4,2.2,25.7,5c51,17.2,78.5,72.7,61.2,123.7 c-17.2,51-72.7,78.5-123.7,61.2c-51-17.2-78.5-72.7-61.2-123.7c9-26.7,29.2-48.3,55.3-59c1.3-0.5,1.9-2,1.4-3.3 c-0.5-1.3-2-1.9-3.3-1.4c-27.5,11.3-48.7,33.9-58.1,62C1629.4,454.8,1658.3,513.1,1711.9,531.2z"></path> </g> </g> </g> <g> <g> <path class="st4" d="M1712.7,489.6l0.2-0.7c2.2-6.4,9.2-9.9,15.7-7.7c0,0,0,0,0,0c3.1,1.1,5.6,3.2,7.1,6.2 c1.5,2.9,1.7,6.3,0.6,9.4l-0.2,0.7c-2.2,6.4-9.2,9.9-15.6,7.7l-0.1,0c0,0,0,0,0,0C1714,503,1710.5,496,1712.7,489.6z M1722.1,500.5c3.8,1.3,8-0.8,9.3-4.6l0.2-0.7c0.6-1.9,0.5-3.8-0.4-5.6c-0.9-1.7-2.4-3.1-4.3-3.7c0,0,0,0,0,0 c-3.8-1.3-8,0.8-9.3,4.6l-0.2,0.7c-1.3,3.8,0.8,8,4.6,9.3C1722,500.5,1722,500.5,1722.1,500.5l-0.9,2.3L1722.1,500.5z M1728,444.5 l24.8-73.8c2.2-6.4,9.2-9.9,15.6-7.8c0,0,0,0,0,0c6.4,2.2,9.9,9.2,7.7,15.6l-24.8,73.8c-2.2,6.4-9.2,9.9-15.6,7.8l0,0c0,0,0,0,0,0 C1729.3,457.9,1725.8,450.9,1728,444.5z M1737.3,455.3c3.8,1.3,8-0.8,9.3-4.6l24.8-73.8c1.3-3.8-0.8-8-4.6-9.3c0,0,0,0,0,0 c-3.8-1.3-8,0.8-9.3,4.6l-24.8,73.8C1731.4,449.9,1733.5,454,1737.3,455.3C1737.3,455.3,1737.3,455.3,1737.3,455.3L1737.3,455.3z"></path> </g> </g> <g> <path class="st4" d="M1742.8,301c1.2,0.4,2.5-0.1,3-1.3l9.9-19.9c0.6-1.2,0.1-2.7-1.1-3.4c-1.2-0.6-2.7-0.1-3.4,1.1l-9.9,19.9 c-0.6,1.2-0.1,2.7,1.1,3.4C1742.6,300.9,1742.7,301,1742.8,301z"></path> </g> <g> <path class="st4" d="M1712.4,293.9c0.5,0.2,1.1,0.2,1.7,0c1.3-0.5,2-1.9,1.5-3.2l-16.6-44.7c-0.5-1.3-1.9-2-3.2-1.5 c-1.3,0.5-2,1.9-1.5,3.2l16.6,44.7C1711.2,293.2,1711.8,293.7,1712.4,293.9z"></path> </g> <g> <path class="st4" d="M1066.3,590.6c0.1,0,0.1,0,0.2,0c1.3-0.3,2.2-1.7,1.9-3l-5.7-24.4c-0.3-1.3-1.7-2.2-3-1.9 c-1.3,0.3-2.2,1.7-1.9,3l5.7,24.4C1063.8,590,1065,590.8,1066.3,590.6z"></path> </g> <g> <path class="st4" d="M1093.2,601.8c0.1,0,0.3-0.1,0.4-0.1l35.7-11.4c1.3-0.4,2-1.8,1.6-3.1c-0.4-1.3-1.8-2-3.1-1.6l-35.7,11.4 c-1.3,0.4-2,1.8-1.6,3.1C1090.9,601.2,1092.1,601.9,1093.2,601.8z"></path> </g> <polygon class="st7" points="1775.5,721.6 1767.3,708.9 1819.2,690.2 1781.9,717 1795,731.6 1784.3,735.2 1738.3,748.4 "></polygon> <polygon class="st7" points="1401.3,669.9 1389.5,681.6 1357.7,630.2 1394.9,664.1 1407.7,646.8 1413.9,657.4 1438.4,703.8 "></polygon> <polygon class="st4" points="1545.2,549.2 1526.4,552.4 1530.3,482.9 1543,539.5 1566.5,531.6 1565.3,545.7 1557.8,605.6 "></polygon> <g> <g> <polygon class="st5" points="651.5,1493.4 806.9,1493.4 924.6,1263.1 769.1,1263.1 "></polygon> <path class="st3" d="M766.8,1261.9l0.7-1.4h161.2l-119.6,234l-0.7,1.4H647.3L766.8,1261.9z M920.4,1265.7H770.7l-115,225.2h149.7 L920.4,1265.7z"></path> </g> <g> <polygon class="st5" points="610,1493.4 765.5,1493.4 883.1,1263.1 727.7,1263.1 "></polygon> <path class="st3" d="M725.4,1261.9l0.7-1.4h161.2l-119.6,234l-0.7,1.4H605.8L725.4,1261.9z M879,1265.7H729.2l-115,225.2h149.7 L879,1265.7z"></path> </g> </g> <g> <g> <g> <g> <defs> <path id="SVGID_1_" d="M2184,1334.2c24.1-41.8,37.9-83.3,46.5-130.7c-37.5,1.8-74.7,1.2-112.1-3.2 c-16.1,22.5-32.4,40.4-53.9,57.7C2103.1,1285.7,2142.5,1311,2184,1334.2z"></path> </defs> <use xlink:href="#SVGID_1_" style="overflow:visible;fill:#F0E6FF;"></use> <clipPath id="SVGID_2_"> <use xlink:href="#SVGID_1_" style="overflow:visible;"></use> </clipPath> </g> </g> </g> <g> <g> <g class="st8"> <defs> <path id="SVGID_3_" class="st8" d="M2184,1334.2c24.1-41.8,37.9-83.3,46.5-130.7c-37.5,1.8-74.7,1.2-112.1-3.2 c-16.1,22.5-32.4,40.4-53.9,57.7C2103.1,1285.7,2142.5,1311,2184,1334.2z"></path> </defs> <use xlink:href="#SVGID_3_" style="overflow:visible;fill:#F0E6FF;"></use> <clipPath id="SVGID_4_"> <use xlink:href="#SVGID_3_" style="overflow:visible;"></use> </clipPath> <g class="st9"> <path class="st1" d="M2118.4,1200.3c37.4,4.4,74.5,4.9,112.1,3.2c-8.6,47.4-22.4,88.9-46.5,130.7 c-41.5-23.2-80.9-48.5-119.5-76.1C2086,1240.7,2102.4,1222.8,2118.4,1200.3L2118.4,1200.3z"></path> </g> </g> </g> </g> <g> <g> <g> <defs> <path id="SVGID_5_" d="M2184,1334.2c24.1-41.8,37.9-83.3,46.5-130.7c-37.5,1.8-74.7,1.2-112.1-3.2 c-16.1,22.5-32.4,40.4-53.9,57.7C2103.1,1285.7,2142.5,1311,2184,1334.2z"></path> </defs> <use xlink:href="#SVGID_5_" style="overflow:visible;fill:#F0E6FF;"></use> <clipPath id="SVGID_6_"> <use xlink:href="#SVGID_5_" style="overflow:visible;"></use> </clipPath> </g> </g> </g> </g> <g> <g> <g> <defs> <polygon id="SVGID_7_" points="1268.9,441.3 1353.2,517.5 1405.5,426.3 1347.1,371.3 "></polygon> </defs> <use xlink:href="#SVGID_7_" style="overflow:visible;fill:#F0E6FF;"></use> <clipPath id="SVGID_8_"> <use xlink:href="#SVGID_7_" style="overflow:visible;"></use> </clipPath> </g> </g> <g> <g class="st8"> <defs> <polygon id="SVGID_9_" class="st8" points="1268.9,441.3 1353.2,517.5 1405.5,426.3 1347.1,371.3 "></polygon> </defs> <use xlink:href="#SVGID_9_" style="overflow:visible;fill:#F0E6FF;"></use> <clipPath id="SVGID_10_"> <use xlink:href="#SVGID_9_" style="overflow:visible;"></use> </clipPath> <g class="st10"> <polygon class="st1" points="1405.5,426.3 1353.2,517.5 1268.9,441.3 1347.1,371.3 1405.5,426.3 "></polygon> </g> </g> </g> <g> <g> <defs> <polygon id="SVGID_11_" points="1268.9,441.3 1353.2,517.5 1405.5,426.3 1347.1,371.3 "></polygon> </defs> <use xlink:href="#SVGID_11_" style="overflow:visible;fill:#F0E6FF;"></use> <clipPath id="SVGID_12_"> <use xlink:href="#SVGID_11_" style="overflow:visible;"></use> </clipPath> </g> </g> </g> <g> <g> <g> <path class="st5" d="M403,1137.1l-102.2,52.7c11.8,58.2,36.8,93.5,79.1,99.1l80.3-83C428,1199.5,410.4,1174.7,403,1137.1 L403,1137.1z"></path> <path class="st1" d="M379.5,1291.9c-21.4-2.8-39.2-13.3-53-31c-12.9-16.7-22.6-40.4-28.7-70.5c-0.3-1.4,0.4-2.7,1.6-3.4 l102.2-52.7c0.9-0.4,1.9-0.5,2.8,0c0.9,0.4,1.5,1.2,1.7,2.2c7.6,38.9,25.5,60.6,54.7,66.3c1.1,0.2,2,1,2.4,2.1 c0.3,1.1,0.1,2.3-0.7,3.1l-80.3,83c-0.6,0.6-1.4,0.9-2.2,0.9C379.7,1292,379.6,1292,379.5,1291.9z M400.8,1141.7l-96.5,49.8 c12.2,57.5,36.5,88.3,74.4,94.1l75.4-77.9C426.7,1200.1,408.8,1178,400.8,1141.7z"></path> </g> </g> </g> <g> <g> <path class="st1" d="M420.5,692.8c-29.6,26.7-64.3,38.3-104.7,28.8c5.3,34,10.5,68,15.8,102c58.6-10.5,101.2-36.1,136.4-69.3 C452.2,733.8,436.3,713.3,420.5,692.8z"></path> <path class="st1" d="M329.6,826.3c-0.7-0.5-1.2-1.3-1.4-2.2l-15.8-102c-0.2-1.1,0.2-2.2,1-3c0.8-0.8,2-1.1,3-0.8 c37.2,8.7,71.4-0.7,101.6-28c0.7-0.6,1.6-0.9,2.5-0.9c0.9,0.1,1.8,0.6,2.4,1.3l47.5,61.5c1.1,1.4,0.9,3.3-0.4,4.5 c-40.5,38.2-84.4,60.5-138.1,70.1c-0.2,0-0.4,0.1-0.6,0.1C330.9,826.9,330.2,826.7,329.6,826.3z M420,697.7 c-30,25.9-63.7,35.4-100.1,28.2l14.5,93.8c49.9-9.5,91.1-30.5,129.1-65.7L420,697.7z"></path> </g> </g> <g> <g> <path class="st5" d="M957.2,881.9c-32.5-18.3-70.7-15.2-103.3-33.5c-14.1,17.7-28.2,35.4-42.4,53.1c31,19.8,68.7,18.2,99.7,38 C926.6,920.2,941.9,901.1,957.2,881.9z"></path> <path class="st1" d="M909.6,942c-15.1-9.6-32.3-14.2-49-18.6c-17.1-4.5-34.8-9.2-50.8-19.4c-0.7-0.5-1.2-1.2-1.4-2.1 c-0.1-0.9,0.1-1.8,0.6-2.4l42.4-53.1c1-1.2,2.6-1.5,4-0.8c15.9,8.9,33.6,12.8,50.8,16.4c17.6,3.8,35.8,7.7,52.5,17.1 c0.8,0.4,1.4,1.2,1.5,2.1c0.2,0.9-0.1,1.8-0.6,2.5l-45.9,57.5c-0.6,0.8-1.5,1.2-2.4,1.2C910.7,942.5,910.2,942.4,909.6,942z M904.9,868.2c-16.8-3.6-34.1-7.3-50.2-15.8l-38.5,48.3c14.4,8.4,30.5,12.7,46,16.8c16.3,4.3,33.1,8.7,48.4,17.9l41.9-52.4 C937.4,875.2,920.9,871.6,904.9,868.2z"></path> </g> </g> <g> <path class="st1" d="M801.9,650.1c-36.3,7.3-62.9,34.5-99.2,41.8c0.9,22.4,1.8,44.9,2.6,67.3c36.1-5.3,63.4-30.9,99.5-36.2 C803.8,698.7,802.9,674.4,801.9,650.1z"></path> </g> <g> <path class="st4" d="M1045.5,820.5c0-12.4,10.1-22.5,22.5-22.5s22.5,10.1,22.5,22.5S1080.4,843,1068,843S1045.5,832.9,1045.5,820.5 z M1050.5,820.5c0,9.6,7.9,17.5,17.5,17.5s17.5-7.9,17.5-17.5s-7.9-17.5-17.5-17.5S1050.5,810.9,1050.5,820.5z"></path> </g> <g> <ellipse transform="matrix(0.9846 -0.1748 0.1748 0.9846 -34.7771 199.276)" class="st5" cx="1113.7" cy="297" rx="96.7" ry="96.7"></ellipse> <path class="st1" d="M1014.5,297c0-54.7,44.5-99.2,99.2-99.2s99.2,44.5,99.2,99.2c0,54.7-44.5,99.2-99.2,99.2 S1014.5,351.8,1014.5,297z M1019.5,297c0,52,42.3,94.2,94.2,94.2S1208,349,1208,297c0-52-42.3-94.2-94.2-94.2 S1019.5,245.1,1019.5,297z"></path> </g> <g> <path class="st1" d="M1113.7,287.5c0.8,0,1.6-0.4,2.1-1.2c0.7-1.2,0.4-2.7-0.8-3.4l-28.7-18c-1.2-0.7-2.7-0.4-3.4,0.8 c-0.7,1.2-0.4,2.7,0.8,3.4l28.7,18C1112.8,287.4,1113.3,287.5,1113.7,287.5z"></path> </g> <g> <path class="st1" d="M1113.7,222.5c1.4,0,2.5-1.1,2.5-2.5v-14.5c0-1.4-1.1-2.5-2.5-2.5s-2.5,1.1-2.5,2.5V220 C1111.2,221.4,1112.3,222.5,1113.7,222.5z"></path> </g> <g> <path class="st1" d="M1113.7,386c1.4,0,2.5-1.1,2.5-2.5V369c0-1.4-1.1-2.5-2.5-2.5s-2.5,1.1-2.5,2.5v14.5 C1111.2,384.9,1112.3,386,1113.7,386z"></path> </g> <g> <path class="st1" d="M1030.7,291h14.5c1.4,0,2.5-1.1,2.5-2.5c0-1.4-1.1-2.5-2.5-2.5h-14.5c-1.4,0-2.5,1.1-2.5,2.5 C1028.2,289.9,1029.3,291,1030.7,291z"></path> </g> <g> <path class="st1" d="M1182.2,291h14.5c1.4,0,2.5-1.1,2.5-2.5c0-1.4-1.1-2.5-2.5-2.5h-14.5c-1.4,0-2.5,1.1-2.5,2.5 C1179.7,289.9,1180.8,291,1182.2,291z"></path> </g> <ellipse transform="matrix(0.9925 -0.1222 0.1222 0.9925 -26.4822 138.2146)" class="st1" cx="1113.7" cy="285" rx="9.9" ry="9.9"></ellipse> <g> <path class="st1" d="M1113.7,287.5c0.9,0,1.8-0.5,2.2-1.4l29.8-59.5c0.6-1.2,0.1-2.7-1.1-3.4c-1.2-0.6-2.7-0.1-3.4,1.1l-29.8,59.5 c-0.6,1.2-0.1,2.7,1.1,3.4C1113,287.5,1113.4,287.5,1113.7,287.5z"></path> </g> <g> <path class="st1" d="M1299.2,624.3c-1-6.1-2.2-12.1-3.7-17.9c-0.3-1.3,0.5-2.7,1.8-3c1.3-0.3,2.7,0.5,3,1.8 c1.5,6,2.8,12.1,3.8,18.3c0.2,1.4-0.7,2.6-2.1,2.9c-0.1,0-0.1,0-0.2,0C1300.7,626.6,1299.5,625.7,1299.2,624.3z M1290.4,588.9 c-2-5.8-4.3-11.4-6.8-16.9c-0.6-1.3,0-2.7,1.2-3.3c1.2-0.6,2.7,0,3.3,1.2c2.6,5.6,4.9,11.5,7,17.4c0.5,1.3-0.2,2.7-1.5,3.2 c-0.2,0.1-0.4,0.1-0.6,0.1C1291.8,590.7,1290.8,590,1290.4,588.9z M1275.1,555.8c-3-5.2-6.4-10.4-9.9-15.3 c-0.8-1.1-0.5-2.7,0.6-3.5c1.1-0.8,2.7-0.6,3.5,0.6c3.6,5.1,7.1,10.4,10.2,15.7c0.7,1.2,0.3,2.7-0.9,3.4c-0.3,0.2-0.7,0.3-1,0.3 C1276.6,557.1,1275.7,556.7,1275.1,555.8z M1253.9,526.2c-3.9-4.5-8.2-9-12.6-13.3c-1-1-1-2.5-0.1-3.5c1-1,2.5-1,3.5-0.1 c4.5,4.4,8.9,8.9,12.9,13.6c0.9,1,0.8,2.6-0.2,3.5c-0.4,0.4-0.9,0.6-1.4,0.6C1255.2,527.1,1254.4,526.8,1253.9,526.2z M1227.6,500.8c-4.6-3.8-9.5-7.5-14.6-11.1c-1.1-0.8-1.4-2.4-0.6-3.5c0.8-1.1,2.4-1.4,3.5-0.6c5.2,3.6,10.2,7.4,14.9,11.3 c1.1,0.9,1.2,2.4,0.4,3.5c-0.4,0.5-1.1,0.8-1.7,0.9C1228.8,501.4,1228.1,501.2,1227.6,500.8z M1197.6,479.7c-5.1-3.1-10.5-6.1-16-9 c-1.2-0.6-1.7-2.1-1.1-3.4c0.6-1.2,2.2-1.7,3.4-1.1c5.6,2.9,11.1,6,16.3,9.1c1.2,0.7,1.6,2.2,0.8,3.4c-0.4,0.7-1.1,1.1-1.9,1.2 C1198.6,480.1,1198.1,480,1197.6,479.7z M1165,462.7c-5.5-2.5-11.2-4.9-17-7.2c-1.3-0.5-1.9-2-1.4-3.2c0.5-1.3,2-1.9,3.2-1.4 c5.9,2.3,11.7,4.7,17.2,7.3c1.3,0.6,1.8,2,1.2,3.3c-0.4,0.8-1.2,1.4-2,1.5C1165.9,463,1165.5,462.9,1165,462.7z M1130.7,449.2 c-5.7-1.9-11.6-3.8-17.6-5.6c-1.3-0.4-2.1-1.8-1.7-3.1c0.4-1.3,1.8-2.1,3.1-1.7c6,1.8,12,3.7,17.8,5.6c1.3,0.4,2,1.9,1.6,3.2 c-0.3,1-1.2,1.6-2.1,1.7C1131.4,449.4,1131.1,449.4,1130.7,449.2z M1095.3,438.8c-5.9-1.5-11.9-2.9-18-4.2c-1.4-0.3-2.2-1.6-1.9-3 c0.3-1.4,1.6-2.2,3-1.9c6.1,1.3,12.3,2.7,18.2,4.2c1.3,0.3,2.2,1.7,1.8,3c-0.3,1.1-1.2,1.8-2.2,1.9 C1095.9,438.9,1095.6,438.9,1095.3,438.8z M1059.1,431.1c-6-1.1-12.2-2-18.3-2.9c-1.4-0.2-2.3-1.5-2.1-2.8c0.2-1.4,1.5-2.3,2.8-2.1 c6.2,0.9,12.4,1.9,18.4,3c1.4,0.2,2.3,1.5,2,2.9c-0.2,1.1-1.1,1.9-2.2,2.1C1059.6,431.2,1059.4,431.2,1059.1,431.1z M1022.5,425.9 c-6.1-0.7-12.3-1.3-18.4-1.8c-1.4-0.1-2.4-1.3-2.3-2.7c0.1-1.4,1.3-2.4,2.7-2.3c6.1,0.5,12.4,1.1,18.6,1.8c1.4,0.2,2.4,1.4,2.2,2.8 c-0.1,1.2-1.1,2.1-2.2,2.2C1022.9,425.9,1022.7,425.9,1022.5,425.9z M985.6,423c-11.6-0.5-18.5-0.4-18.5-0.4 c-1.4,0-2.5-1.1-2.5-2.5c0-1.4,1.1-2.5,2.5-2.5c0.3,0,7.1-0.1,18.9,0.4c1.4,0.1,2.4,1.2,2.4,2.6c-0.1,1.3-1,2.3-2.2,2.4 C985.8,423,985.7,423,985.6,423z"></path> </g> <g> <polygon class="st2" points="1324.9,1374.7 1291,1437.3 1204.8,1437.3 1247.6,1352.9 "></polygon> <polygon class="st7" points="1301.8,1414.3 1292.8,1496.2 1145.2,1496.6 1162.7,1463.1 1207,1430.7 1205.6,1399.3 1237.5,1399.2 1251.4,1421.1 "></polygon> <g> <path class="st5" d="M1153.5,1483.5C1153.5,1483.5,1153.5,1483.5,1153.5,1483.5l96.8-0.2c0.7,0,1.4-0.3,2-0.8 c0.5-0.5,0.8-1.2,0.8-2c0-0.1,0-8.6,7.1-15.7c6.8-6.9,17.8-10.4,32.6-10.5c1.5,0,2.8-1.2,2.8-2.8c0-1.5-1.2-2.8-2.8-2.8 c0,0,0,0,0,0c-16.4,0-28.7,4.1-36.6,12.2c-6.1,6.2-7.9,13-8.4,16.8l-94.3,0.2c-1.5,0-2.8,1.2-2.8,2.8 C1150.7,1482.2,1152,1483.5,1153.5,1483.5z"></path> </g> <g> <path class="st5" d="M1162.7,1465.9C1162.7,1465.9,1162.7,1465.9,1162.7,1465.9l65.1-0.2c1,0,1.9-0.5,2.4-1.4l23.7-41.9 c0.7-1.3,0.3-3-1-3.8c-1.3-0.7-3-0.3-3.8,1l-22.9,40.5l-63.4,0.2c-1.5,0-2.8,1.2-2.8,2.8 C1159.9,1464.6,1161.1,1465.9,1162.7,1465.9z"></path> </g> <g> <path class="st5" d="M1186.6,1444.9C1186.6,1444.9,1186.6,1444.9,1186.6,1444.9l22.9-0.1c1.5,0,2.8-1.2,2.8-2.8 c0-1.5-1.3-2.8-2.8-2.8l-22.9,0.1c-1.5,0-2.8,1.2-2.8,2.8C1183.8,1443.7,1185,1444.9,1186.6,1444.9z"></path> </g> <g> <path class="st5" d="M1193.4,1436.4C1193.4,1436.4,1193.4,1436.4,1193.4,1436.4l22.9-0.1c1.5,0,2.8-1.2,2.8-2.8 c0-1.5-1.2-2.8-2.8-2.8c0,0,0,0,0,0l-22.9,0.1c-1.5,0-2.8,1.2-2.8,2.8C1190.6,1435.2,1191.8,1436.4,1193.4,1436.4z"></path> </g> <polygon class="st2" points="1380.2,1379.3 1386.5,1435.7 1455.3,1435.7 1454.1,1366.8 "></polygon> <path class="st11" d="M1557.1,844.6l-7.2,13.8c-10.4,18.1-28.1,30.8-48.5,34.8l-96.8,23.6c-10.8,2.6-22-1.6-28.4-10.6l-97.8-134.2 l53.5-29.2l87,95.5l57.2-21.7C1506.3,805.2,1540.4,816.9,1557.1,844.6L1557.1,844.6z"></path> <path class="st4" d="M1426.8,1082.5l100,141.6h-78.4l18.1,162.6H1330l-47.7-239.8c-3.5-17.8,8.9-34.8,26.9-36.8L1426.8,1082.5z"></path> <path class="st5" d="M1594.5,812.7c-32.5,46-59.4,96-63.4,147c-19.4-64.3-3.8-118.2,3.5-146.8l18-4.5L1594.5,812.7z"></path> <path class="st11" d="M1640.6,822l21.4,263.7l-214-4.3l9.4-259.3l66.2-9.2l11.5-2.9c-7.4,28.6-23.4,85.5-4,149.8 c4.1-51,30.9-101,63.4-147l0,0L1640.6,822z"></path> <polygon class="st2" points="1594.5,812.7 1543.3,867.6 1534.6,812.9 1549.6,713 1604.2,713 "></polygon> <polygon class="st2" points="1485.6,1025.1 1553.8,1010.3 1570.8,1067.4 1520.7,1067.4 "></polygon> <path class="st2" d="M1543.4,804.9l-26.6-8.5c-13.6-4.4-21.1-19-16.8-32.6l20.6-64.3l75.9,24.4l-20.6,64.3 C1571.6,801.8,1557,809.3,1543.4,804.9z"></path> <path class="st4" d="M1601.6,736.8c-11.9,4.3-24.7,5.7-37.3,4.1c-10-1.2-19.9-3-29.7-5.4c-8.2-2-16.8-4.1-24.1-8.6 c-5-3-9.1-7.4-8.3-13.7c0.9-7,8.4-11.9,14.9-13.1c0,0-17.5-12.7,1-20.3c0.5-0.2,1.5-10.2,1.8-11.2c3.6-13.8,17.6-19.9,30-12.6 c23.7,13.9,26.8,47.7,52.8,59C1624.5,724.6,1614.5,732.1,1601.6,736.8z"></path> <path class="st4" d="M1563.4,683.9c0,0,58.5-5.2,63.3,24.5c4.8,29.7-33.5,68.8-42.6,73.1c-9.1,4.2-6.5-52.4-6.5-52.4L1563.4,683.9z "></path> <path class="st2" d="M1577.5,789L1577.5,789c-8.3-2.7-12.8-11.5-10.2-19.8l1.7-5.3c2.7-8.3,11.5-12.8,19.8-10.2l0,0 c8.3,2.7,12.8,11.5,10.2,19.8l-1.7,5.3C1594.6,787.1,1585.8,791.6,1577.5,789z"></path> <g> <path class="st4" d="M1577.4,777.3c0.5,0,1-0.1,1.4-0.4l11.8-7c1.3-0.8,1.7-2.5,1-3.8c-0.8-1.3-2.5-1.7-3.8-1l-11.8,7 c-1.3,0.8-1.7,2.5-1,3.8C1575.5,776.8,1576.4,777.3,1577.4,777.3z"></path> </g> <g> <path class="st4" d="M1529.6,1011.4c1.5,0,2.7-1.2,2.8-2.7l0.8-39.2c0-1.5-1.2-2.8-2.7-2.8c0,0,0,0-0.1,0c-1.5,0-2.7,1.2-2.8,2.7 l-0.8,39.2C1526.9,1010.1,1528.1,1011.4,1529.6,1011.4C1529.6,1011.4,1529.6,1011.4,1529.6,1011.4z"></path> </g> <g> <path class="st12" d="M1601.4,734.3c15.1,0,25.6-5.4,30.4-15.8c0.6-1.4,0-3-1.3-3.7c-1.4-0.6-3,0-3.7,1.3 c-4,8.6-13,12.9-26.6,12.6c-1.5,0-2.8,1.2-2.8,2.7c0,1.5,1.2,2.8,2.7,2.8C1600.6,734.3,1601,734.3,1601.4,734.3z"></path> </g> <g> <path class="st12" d="M1608,745.2C1608,745.2,1608,745.2,1608,745.2c6.8-0.2,12.5-2.5,17.2-6.9c1.1-1,1.2-2.8,0.1-3.9 c-1-1.1-2.8-1.2-3.9-0.1c-3.6,3.4-8.2,5.3-13.5,5.4c-1.5,0-2.7,1.3-2.7,2.8C1605.2,744,1606.5,745.2,1608,745.2z"></path> </g> <g> <path class="st12" d="M1558,690.6c0.7,0,1.5-0.3,2-0.9c4.1-4.4,13.9-4.9,17.3-4.7c1.5,0.1,2.8-1.1,2.9-2.6 c0.1-1.5-1.1-2.8-2.6-2.9c-0.6,0-14.9-0.7-21.6,6.5c-1,1.1-1,2.9,0.1,3.9C1556.6,690.3,1557.3,690.6,1558,690.6z"></path> </g> <polygon class="st7" points="1371.1,1432.5 1371.1,1496.6 1468.3,1496.6 1468.3,1431.7 1438.7,1424.1 1432,1399.4 1390.6,1399.4 1382.6,1423.6 "></polygon> <g> <path class="st5" d="M1371.1,1483.5c0.9,0,1.8-0.4,2.3-1.2l5.6-8.5c6.7-10.1,17.9-16.1,30-16.1c13.8,0,26.1,7.6,32.3,19.9l2.2,4.4 c0.5,0.9,1.4,1.5,2.5,1.5h22.3c1.5,0,2.8-1.2,2.8-2.8s-1.2-2.8-2.8-2.8h-20.6l-1.4-2.8c-7.1-14.2-21.3-23-37.2-23 c-14,0-26.9,6.9-34.6,18.6l-5.6,8.5c-0.8,1.3-0.5,3,0.8,3.8C1370.1,1483.4,1370.6,1483.5,1371.1,1483.5z"></path> </g> <g> <path class="st5" d="M1392.5,1429.1h33.3c1.5,0,2.8-1.2,2.8-2.8s-1.2-2.8-2.8-2.8h-33.3c-1.5,0-2.8,1.2-2.8,2.8 S1390.9,1429.1,1392.5,1429.1z"></path> </g> <g> <path class="st5" d="M1397.3,1438.5h23.6c1.5,0,2.8-1.2,2.8-2.8s-1.2-2.8-2.8-2.8h-23.6c-1.5,0-2.8,1.2-2.8,2.8 S1395.8,1438.5,1397.3,1438.5z"></path> </g> <g> <path class="st5" d="M1401.1,1447.9h16c1.5,0,2.8-1.2,2.8-2.8s-1.2-2.8-2.8-2.8h-16c-1.5,0-2.8,1.2-2.8,2.8 S1399.6,1447.9,1401.1,1447.9z"></path> </g> <g> <path class="st5" d="M1389.3,1463.1c0.5,0,1-0.1,1.5-0.4c1.3-0.8,1.6-2.5,0.8-3.8l-18.2-27.8c-0.8-1.3-2.5-1.6-3.8-0.8 c-1.3,0.8-1.6,2.5-0.8,3.8l18.2,27.8C1387.5,1462.7,1388.4,1463.1,1389.3,1463.1z"></path> </g> <path class="st2" d="M1531.1,1078.7l-45.5-60.4c-0.3-0.4-0.6-0.7-0.8-1.1c-9.1-11.2-25.2-13.7-37.6-6.4l-68.1,39.7l31,27.1 L1531.1,1078.7z"></path> <g> <path class="st5" d="M1428.9,1463.1c0.9,0,1.8-0.5,2.4-1.3l16.3-26.6c2.5,9.6,11,16.8,21.4,17.3c1.5,0.1,2.8-1.1,2.9-2.6 c0.1-1.5-1.1-2.8-2.6-2.9c-9.5-0.4-16.9-8.2-16.9-17.7c0-0.9,0.1-1.7,0.2-2.6c0.2-1.3-0.6-2.5-1.8-3c-1.2-0.4-2.6,0-3.3,1.2 l-20.9,34c-0.8,1.3-0.4,3,0.9,3.8C1427.9,1463,1428.4,1463.1,1428.9,1463.1z"></path> </g> <g> <path class="st4" d="M1511.9,1081.3l-101.9-0.9c-0.7,0-1.3-0.2-1.8-0.7c-11.3-9.9-30.2-26.4-31-27.1c0,0,0,0,0,0l0,0c0,0,0,0,0,0 c-1.1-1-1.2-2.7-0.2-3.9c0.9-1.1,2.5-1.2,3.7-0.4c1.3,0.1,5-1.5,15-9.2c1-0.7,1.7-1.3,2.2-1.7c1.9-1.3,4.1-2.9,6.4-4.6 c21.7-15.7,62-44.9,83.6-16.2l3.3,4.4l62.1-13.5c1.4-0.3,2.8,0.5,3.2,1.9l13.4,44.9c0.4,1.5-0.4,3-1.9,3.4c-1.5,0.4-3-0.4-3.4-1.9 l-12.6-42.4l-61.3,13.3c-1.1,0.2-2.1-0.2-2.8-1l-4.4-5.8c-18.3-24.3-54.4,1.8-76,17.4c-2.3,1.7-4.5,3.3-6.4,4.6 c-0.4,0.3-1.1,0.8-2,1.5c-5.4,4.2-9.9,7.3-13.5,9c7.6,6.6,22.2,19.4,25.7,22.4l100.9,0.9c1.5,0,2.7,1.3,2.7,2.8 C1514.7,1080.1,1513.5,1081.3,1511.9,1081.3C1511.9,1081.3,1511.9,1081.3,1511.9,1081.3z M1380.8,1048.4 C1380.8,1048.4,1380.8,1048.4,1380.8,1048.4C1380.8,1048.4,1380.8,1048.4,1380.8,1048.4z"></path> </g> <g> <path class="st4" d="M1531.1,962.5c0.5,0,1.1-0.2,1.5-0.5c1.3-0.9,1.6-2.6,0.7-3.8c-12-17.7-21-53.7-28.3-82.7 c-1.3-5.2-2.5-10.1-3.7-14.7l19.5-17.2c0.7-0.6,1.1-1.6,0.9-2.6c-0.2-1-0.9-1.7-1.8-2.1l-15.6-5.6l17.8-11.6 c1.3-0.8,1.6-2.5,0.8-3.8c-0.8-1.3-2.5-1.6-3.8-0.8l-22.4,14.7c-0.9,0.6-1.4,1.6-1.2,2.6c0.1,1,0.8,1.9,1.8,2.3l16.4,5.8 l-17.3,15.2c-0.8,0.7-1.1,1.8-0.8,2.8c1.3,5.1,2.7,10.5,4.2,16.3c7.4,29.4,16.6,66,29.1,84.4 C1529.3,962,1530.2,962.5,1531.1,962.5z"></path> </g> <g> <path class="st4" d="M1542.9,949.8c1,0,1.9-0.5,2.4-1.4c16.6-29.6,36.5-62.7,57.8-84c0.6-0.6,0.9-1.6,0.8-2.5 c-0.2-0.9-0.8-1.7-1.6-2l-13.8-6l13.5-3.6c1.3-0.3,2.1-1.6,2-2.9l-2.8-34.2c-0.1-1.5-1.4-2.7-3-2.5c-1.5,0.1-2.7,1.5-2.5,3 l2.6,31.9l-18.9,5c-1.1,0.3-2,1.3-2,2.5c-0.1,1.2,0.6,2.3,1.7,2.7l17.5,7.5c-20.7,21.8-39.8,53.7-55.9,82.3 c-0.7,1.3-0.3,3,1.1,3.8C1542,949.6,1542.4,949.8,1542.9,949.8z"></path> </g> <g> <path class="st4" d="M1530.4,972.3c1.4,0,2.7-1.1,2.8-2.6c0.2-3.2,0.4-6.5,0.7-9.8c0.1-1.5-1-2.8-2.5-3c-1.5-0.1-2.8,1-3,2.5 c-0.3,3.3-0.5,6.6-0.7,9.9c-0.1,1.5,1.1,2.8,2.6,2.9C1530.3,972.3,1530.4,972.3,1530.4,972.3z"></path> </g> <g> <path class="st4" d="M1540.1,979.5c0-5.9,4.8-10.7,10.7-10.7c5.9,0,10.7,4.8,10.7,10.7c0,5.9-4.8,10.7-10.7,10.7 C1544.9,990.1,1540.1,985.3,1540.1,979.5z M1545.6,979.5c0,2.9,2.3,5.2,5.2,5.2c2.9,0,5.2-2.3,5.2-5.2c0-2.9-2.3-5.2-5.2-5.2 C1548,974.3,1545.6,976.6,1545.6,979.5z"></path> </g> <g> <path class="st5" d="M1703.1,967.1c7.3,0,11.6-2.5,11.9-2.7c1.3-0.8,1.7-2.5,0.9-3.8c-0.8-1.3-2.5-1.7-3.8-0.9 c-0.3,0.2-7.7,4.3-20.2-0.2c-1.4-0.5-3,0.2-3.5,1.6c-0.5,1.4,0.2,3,1.6,3.5C1695.1,966.5,1699.5,967.1,1703.1,967.1z"></path> </g> <g> <path class="st4" d="M1540.7,804.5c3.7,0,7.3-0.4,10.9-1.2c1.5-0.3,2.4-1.8,2.1-3.3c-0.3-1.5-1.8-2.4-3.3-2.1 c-4.7,1.1-9.6,1.3-14.6,0.8c-1.5-0.2-2.9,0.9-3,2.4c-0.2,1.5,0.9,2.9,2.4,3C1537.1,804.4,1538.9,804.5,1540.7,804.5z"></path> </g> <path class="st11" d="M1640.6,822l14.9,4.9c19.4,7.5,34.6,23.1,41.7,42.7l49.2,169.9c4.5,15.5-7.1,30.9-23.2,31l-163.2,0.7 l-33.3-62.6l107.3-11.9l-28.3-134.6L1640.6,822z"></path> <path class="st4" d="M1572.9,1064.2c1.6,2.1,4.6,2.6,6.7,1c2.1-1.6,2.6-4.6,1-6.7c-1.6-2.1-4.6-2.6-6.7-1 C1571.8,1059.1,1571.4,1062.1,1572.9,1064.2z"></path> <g> <path class="st4" d="M1559.9,1064.2c0.3,0,0.6,0,0.9-0.2c1.4-0.5,2.2-2.1,1.7-3.5l-15-43.2c-0.5-1.4-2.1-2.2-3.5-1.7 c-1.4,0.5-2.2,2.1-1.7,3.5l15,43.2C1557.7,1063.5,1558.7,1064.2,1559.9,1064.2z"></path> </g> <g> <path class="st5" d="M1526.9,1010.1c0.1,0,0.1,0,0.2,0l149.7-12.1c1.5-0.1,2.6-1.4,2.5-2.8c-0.1-1.5-1.3-2.6-2.7-2.7l-32.9-0.4 l-15.9-28.8c-0.2-0.3-0.4-0.5-0.6-0.8c-0.2-0.2-20.4-18-23.6-51.3c-0.1-1.5-1.5-2.6-3-2.5c-1.5,0.1-2.6,1.5-2.5,3 c3.2,33.4,22.1,51.9,25.1,54.6l16,29.1l-112.6,9.1c-1.5,0.1-2.6,1.5-2.5,3C1524.2,1009,1525.4,1010.1,1526.9,1010.1z"></path> </g> <g> <path class="st5" d="M1543.1,1073.1h117.7c1.5,0,2.8-1.2,2.8-2.8s-1.2-2.8-2.8-2.8h-117.7c-1.5,0-2.8,1.2-2.8,2.8 S1541.5,1073.1,1543.1,1073.1z"></path> </g> <path class="st4" d="M1662,1084.6l0,45.3c0,52-42.2,94.2-94.2,94.2h-119.3l-105.8,162.6h-136.6l92.9-155.2l77.2-128.9l50.5-20.1 L1662,1084.6z"></path> <g> <path class="st5" d="M1299.1,1234.3c0.9,0,1.9-0.5,2.4-1.3l60.2-100.5c5.1-8.6,14.5-13.9,24.5-13.9h114.3c1.5,0,2.8-1.2,2.8-2.8 s-1.2-2.8-2.8-2.8h-114.3c-11.9,0-23.1,6.3-29.2,16.6l-60.2,100.5c-0.8,1.3-0.4,3,0.9,3.8 C1298.1,1234.2,1298.6,1234.3,1299.1,1234.3z"></path> </g> <g> <path class="st5" d="M1342.7,1389.5c0.9,0,1.8-0.4,2.3-1.3l105.8-162.6c0.8-1.3,0.5-3-0.8-3.8c-1.3-0.8-3-0.5-3.8,0.8 l-105.8,162.6c-0.8,1.3-0.5,3,0.8,3.8C1341.7,1389.4,1342.2,1389.5,1342.7,1389.5z"></path> </g> <g> <path class="st11" d="M1234.4,1349.7h81.2c0.9,0,1.8-0.5,2.3-1.3l98.4-156.7h146.2c1.5,0,2.8-1.2,2.8-2.8s-1.2-2.8-2.8-2.8h-147.7 c-0.9,0-1.8,0.5-2.3,1.3l-98.4,156.7h-79.6c-1.5,0-2.8,1.2-2.8,2.8S1232.9,1349.7,1234.4,1349.7z"></path> </g> <g> <path class="st11" d="M1283.8,1349.7c0.9,0,1.8-0.5,2.3-1.3l82.2-132.4c0.8-1.3,0.4-3-0.9-3.8c-1.3-0.8-3-0.4-3.8,0.9l-82.2,132.4 c-0.8,1.3-0.4,3,0.9,3.8C1282.8,1349.6,1283.3,1349.7,1283.8,1349.7z"></path> </g> <g> <path class="st11" d="M1611.1,1129.5c1.5,0,2.7-1.2,2.8-2.7c0-1.5-1.2-2.8-2.7-2.8c-0.4,0-39.7-0.5-48.7-20.3 c-0.6-1.4-2.3-2-3.7-1.4c-1.4,0.6-2,2.3-1.4,3.7C1567.8,1129,1609.3,1129.5,1611.1,1129.5C1611,1129.5,1611,1129.5,1611.1,1129.5z "></path> </g> </g> <path class="st3" d="M1349,1083h194.8v-9.5c0-7.1-5.7-12.8-12.8-12.8h-182V1083z"></path> <path class="st3" d="M1179.8,1081.3l224.4-1.6l-42.5-188.8c-1.7-7.6-8.5-12.9-16.2-12.9l-196.3,1.3c-7.6,0.1-13.2,7.1-11.5,14.5 L1179.8,1081.3z"></path> <g> <path class="st5" d="M1375.1,1064c0.2,0,0.4,0,0.5-0.1c1.3-0.3,2.2-1.6,1.9-3l-36.2-166.3c-1.9-8.7-9.7-15-18.5-15 c-1.4,0-2.5,1.1-2.5,2.5c0,1.4,1.1,2.5,2.5,2.5c6.5,0,12.3,4.6,13.7,11l36.2,166.3C1372.9,1063.2,1374,1064,1375.1,1064z"></path> </g> <g> <path class="st5" d="M1226.5,978c-1.3-7.3,0.3-14.2,4.6-19.3c4.2-5.1,10.5-7.9,17.7-7.9c14.5,0,28.5,11.8,31.1,26.3 c1.3,7.3-0.3,14.2-4.6,19.3c-4.2,5.1-10.5,7.9-17.7,7.9C1243.1,1004.3,1229.1,992.5,1226.5,978z M1235,961.9 c-3.4,4-4.6,9.4-3.6,15.2l0,0c2.2,12.2,14,22.2,26.2,22.2c5.6,0,10.6-2.2,13.8-6.1c3.4-4,4.6-9.4,3.6-15.2 c-2.2-12.2-14-22.2-26.2-22.2C1243.1,955.9,1238.2,958,1235,961.9z"></path> </g> <g> <path class="st5" d="M1178.6,908.2h67.4c1.4,0,2.5-1.1,2.5-2.5s-1.1-2.5-2.5-2.5h-67.4c-1.4,0-2.5,1.1-2.5,2.5 S1177.3,908.2,1178.6,908.2z"></path> </g> <g> <path class="st4" d="M647.2,1082.9h809.5c1.4,0,2.5-1.1,2.5-2.5s-1.1-2.5-2.5-2.5H647.2c-1.4,0-2.5,1.1-2.5,2.5 S645.8,1082.9,647.2,1082.9z"></path> </g> </svg> 